<svg xmlns="http://www.w3.org/2000/svg" xmlns:xlink="http://www.w3.org/1999/xlink" version="1.1" x="0px" y="0px" viewBox="0 0 100 125" enable-background="new 0 0 100 100" xml:space="preserve"><g display="none"><rect x="-780.877" y="-637.172" display="inline" fill="#000000" width="1370.931" height="1263.231"/></g><g><path d="M53.804,16.944c-5.222-2.099-11.176,0.446-13.273,5.665c-2.098,5.222,0.444,11.176,5.665,13.273   c1.243,0.5,2.527,0.736,3.791,0.736c4.047,0,7.884-2.423,9.482-6.401c1.016-2.53,0.986-5.304-0.084-7.811   C58.315,19.899,56.332,17.959,53.804,16.944z M56.667,29.09c-0.716,1.781-2.081,3.176-3.846,3.93   c-1.764,0.755-3.717,0.774-5.497,0.06c-1.781-0.716-3.176-2.081-3.93-3.846c-0.754-1.764-0.775-3.717-0.06-5.497   c0.716-1.781,2.081-3.176,3.846-3.93c0.907-0.387,1.863-0.581,2.819-0.581c0.906,0,1.812,0.174,2.679,0.521   c1.78,0.715,3.175,2.081,3.929,3.846C57.361,25.357,57.381,27.31,56.667,29.09z"/><path d="M62.238,44.036l1.097-0.871c1.385-1.101,2.63-2.373,3.7-3.779l0.85-1.116l-1.05-0.929c-1.297-1.15-1.737-2.999-1.093-4.604   c0.644-1.604,2.243-2.64,3.974-2.57l1.4,0.054l0.159-1.393c0.201-1.752,0.181-3.532-0.058-5.288l-0.189-1.389l-1.398,0.085   c-1.72,0.104-3.349-0.893-4.028-2.483c-0.679-1.59-0.28-3.45,0.991-4.627l1.029-0.951l-0.871-1.097   c-1.101-1.385-2.373-2.63-3.779-3.7l-1.116-0.85l-0.929,1.05c-1.15,1.298-3,1.738-4.604,1.093c-1.604-0.644-2.637-2.241-2.57-3.974   l0.054-1.4l-1.393-0.159c-1.752-0.201-3.531-0.181-5.288,0.058l-1.389,0.189l0.085,1.398c0.104,1.731-0.894,3.35-2.483,4.028   c-1.588,0.681-3.45,0.28-4.627-0.991L37.762,8.79l-1.097,0.871c-1.385,1.101-2.63,2.373-3.7,3.779l-0.85,1.116l1.05,0.929   c1.297,1.15,1.737,2.999,1.093,4.604c-0.645,1.604-2.248,2.629-3.974,2.57l-1.4-0.054l-0.159,1.392   c-0.201,1.752-0.181,3.532,0.058,5.288l0.189,1.389l1.399-0.085c1.747-0.098,3.348,0.893,4.027,2.483   c0.679,1.59,0.28,3.45-0.991,4.627l-1.029,0.951l0.871,1.097c1.101,1.385,2.373,2.63,3.779,3.7l1.116,0.85l0.929-1.05   c1.151-1.298,2.999-1.735,4.604-1.093c1.604,0.645,2.637,2.242,2.57,3.974l-0.054,1.4l1.393,0.159   c0.799,0.091,1.602,0.137,2.406,0.137c0.963,0,1.926-0.065,2.882-0.196l1.388-0.19l-0.085-1.397   c-0.104-1.731,0.894-3.349,2.483-4.028c1.592-0.678,3.449-0.279,4.627,0.992L62.238,44.036z M55.475,39.237   c-2.305,0.984-3.894,3.106-4.25,5.527c-0.682,0.045-1.368,0.053-2.052,0.024c-0.407-2.413-2.042-4.5-4.369-5.434   c-2.325-0.934-4.948-0.56-6.913,0.903c-0.514-0.451-1.004-0.931-1.466-1.437c1.417-1.994,1.737-4.625,0.753-6.931   c-0.984-2.306-3.106-3.895-5.527-4.25c-0.046-0.683-0.054-1.369-0.024-2.052c2.413-0.407,4.5-2.042,5.434-4.369   c0.935-2.327,0.559-4.949-0.903-6.913c0.451-0.514,0.931-1.004,1.437-1.466c1.993,1.417,4.625,1.736,6.931,0.753   c2.305-0.984,3.894-3.106,4.25-5.527c0.682-0.046,1.368-0.053,2.052-0.024c0.407,2.413,2.042,4.5,4.369,5.434   c2.325,0.934,4.948,0.56,6.913-0.903c0.514,0.451,1.004,0.931,1.466,1.437c-1.417,1.994-1.737,4.625-0.753,6.931   c0.984,2.305,3.106,3.894,5.527,4.25c0.046,0.683,0.054,1.369,0.024,2.052c-2.413,0.407-4.5,2.042-5.434,4.369   c-0.935,2.327-0.559,4.949,0.903,6.913c-0.451,0.514-0.93,1.004-1.437,1.466C60.411,38.571,57.78,38.252,55.475,39.237z"/><path d="M50,53.987c-5.719,0-10.356,4.636-10.356,10.356c0,5.719,4.636,10.356,10.356,10.356c5.719,0,10.356-4.636,10.356-10.356   C60.356,58.624,55.719,53.987,50,53.987z M50,71.678c-4.044,0-7.335-3.29-7.335-7.335s3.29-7.335,7.335-7.335   c4.044,0,7.335,3.29,7.335,7.335S54.044,71.678,50,71.678z"/><path d="M23.616,76.131c5.347,0,9.682-4.335,9.682-9.682s-4.335-9.682-9.682-9.682c-5.347,0-9.682,4.335-9.682,9.682   S18.268,76.131,23.616,76.131z M23.616,59.788c3.673,0,6.661,2.988,6.661,6.661c0,3.673-2.988,6.661-6.661,6.661   c-3.673,0-6.661-2.988-6.661-6.661C16.955,62.776,19.943,59.788,23.616,59.788z"/><path d="M76.384,77.472c-4.827,0-9.197,1.952-12.367,5.109c-3.435-3.874-8.434-6.328-14.018-6.328s-10.583,2.455-14.018,6.329   c-3.17-3.156-7.54-5.109-12.366-5.109c-9.681,0-17.528,7.848-17.528,17.528h25.165h9.892h17.712h9.892h25.165   C93.912,85.319,86.065,77.472,76.384,77.472z M31.517,91.979H9.425c1.394-6.554,7.227-11.486,14.191-11.486   c4.142,0,7.875,1.754,10.521,4.547C32.831,87.115,31.926,89.461,31.517,91.979z M62.194,91.979H37.806h-3.242   C35.977,84.748,42.361,79.273,50,79.273c7.639,0,14.023,5.475,15.436,12.706H62.194z M68.483,91.979   c-0.409-2.518-1.313-4.864-2.619-6.939c2.646-2.793,6.379-4.547,10.521-4.547c6.964,0,12.797,4.932,14.191,11.486H68.483z"/><path d="M76.384,76.131c5.347,0,9.682-4.335,9.682-9.682s-4.335-9.682-9.682-9.682c-5.347,0-9.682,4.335-9.682,9.682   S71.037,76.131,76.384,76.131z M76.384,59.788c3.673,0,6.661,2.988,6.661,6.661c0,3.673-2.988,6.661-6.661,6.661   c-3.673,0-6.661-2.988-6.661-6.661C69.723,62.776,72.712,59.788,76.384,59.788z"/></g></svg>
