<svg xmlns="http://www.w3.org/2000/svg" xmlns:xlink="http://www.w3.org/1999/xlink" version="1.1" x="0px" y="0px" viewBox="0 0 100 125" style="enable-background:new 0 0 100 100;" xml:space="preserve"><g><g><path d="M51.1,78.6c-6.6-0.1-12.7-2-18.4-5.2c-8.8-4.9-15.9-11.8-21.9-19.9c-1.3-1.7-1.3-2.9-0.1-4.5C17,40.5,24.5,33.2,34,28.3    c5.6-2.9,11.6-4.7,18-4.5c6.2,0.2,11.9,2.1,17.3,5.1c8.9,4.9,16.1,11.8,22.1,20c1.3,1.8,1.3,2.8,0,4.5    C85.2,61.7,78,68.7,68.9,73.7C63.3,76.7,57.4,78.5,51.1,78.6z M50.9,72.9c3.9-0.1,7.7-0.9,11.4-2.4c9.5-4,16.8-10.7,23.2-18.6    c0.5-0.6,0.4-1-0.1-1.5c-0.9-1.1-1.8-2.2-2.8-3.3c-5.3-5.9-11.3-11-18.6-14.4c-4.2-2-8.7-3.3-13.4-3.2c-5.3,0.1-10.2,1.8-14.8,4.2    c-7.6,4.1-13.7,9.9-19.1,16.5c-0.6,0.7-0.5,1.2,0,1.9c4.3,5.4,9.2,10.2,14.9,14.1C37.5,70,43.8,72.7,50.9,72.9z"/><path d="M65.8,51.2c0,8-6.6,14.7-14.7,14.7C43,66,36.5,59.4,36.3,51.1c-0.1-7.9,6.8-14.7,14.8-14.7C59.1,36.4,65.7,43,65.8,51.2z     M42,51c0,5.1,4,9.2,9,9.2c4.9,0,9.1-4.1,9.1-9c0-5-4.1-9.1-9-9.1C46.2,42.1,42,46.2,42,51z"/></g></g></svg>
