<svg xmlns="http://www.w3.org/2000/svg" xmlns:xlink="http://www.w3.org/1999/xlink" version="1.1" x="0px" y="0px" viewBox="0 0 64 80" style="enable-background:new 0 0 64 64;" xml:space="preserve"><path d="M16,26c0.904,0,1.776-0.131,2.609-0.357c0.007-0.002,0.013-0.001,0.02-0.003c0.014-0.004,0.026-0.009,0.04-0.013  c0.228-0.063,0.452-0.135,0.674-0.214c0.058-0.021,0.116-0.042,0.173-0.063c0.209-0.079,0.416-0.163,0.618-0.255  c0.063-0.029,0.125-0.06,0.188-0.091c0.198-0.095,0.394-0.192,0.584-0.3c0.04-0.023,0.078-0.049,0.118-0.072  c0.419-0.245,0.82-0.516,1.197-0.817c0.014-0.011,0.029-0.021,0.043-0.032c0.147-0.118,0.286-0.245,0.426-0.372  c0.078-0.07,0.157-0.139,0.233-0.211c0.13-0.125,0.254-0.255,0.377-0.387c0.075-0.081,0.15-0.161,0.222-0.244  c0.119-0.136,0.235-0.275,0.347-0.418c0.065-0.083,0.126-0.167,0.188-0.252c0.111-0.151,0.221-0.303,0.324-0.46  c0.045-0.069,0.086-0.142,0.129-0.212c0.336-0.544,0.619-1.122,0.847-1.728c0.044-0.118,0.09-0.236,0.13-0.356  c0.05-0.149,0.093-0.301,0.136-0.453c0.041-0.147,0.08-0.294,0.114-0.443c0.032-0.139,0.062-0.277,0.089-0.418  c0.034-0.183,0.061-0.368,0.085-0.554c0.015-0.115,0.033-0.228,0.043-0.344C25.982,16.624,26,16.314,26,16c0-5.514-4.486-10-10-10  c-0.393,0-0.778,0.029-1.159,0.073c-0.104,0.012-0.206,0.032-0.309,0.047c-0.283,0.042-0.563,0.094-0.838,0.159  c-0.116,0.027-0.23,0.057-0.345,0.089c-0.266,0.073-0.527,0.158-0.784,0.253c-0.108,0.04-0.218,0.076-0.325,0.119  c-0.338,0.138-0.669,0.289-0.987,0.461c-0.014,0.008-0.029,0.013-0.043,0.02c-0.001,0-0.001,0.001-0.001,0.001  c-0.057,0.031-0.107,0.071-0.163,0.103c-0.26,0.149-0.513,0.307-0.758,0.478c-0.138,0.096-0.269,0.198-0.401,0.3  C9.73,8.225,9.576,8.352,9.426,8.483C9.285,8.607,9.145,8.73,9.011,8.86c-0.133,0.13-0.258,0.269-0.383,0.407  c-0.197,0.216-0.385,0.438-0.562,0.67c-0.137,0.179-0.274,0.359-0.399,0.547c-0.087,0.132-0.165,0.269-0.246,0.405  c-0.121,0.203-0.236,0.409-0.343,0.62c-0.057,0.114-0.114,0.228-0.167,0.345c-0.136,0.297-0.257,0.6-0.364,0.911  c-0.013,0.038-0.029,0.075-0.042,0.113c-0.256,0.776-0.414,1.594-0.471,2.44c0,0.006-0.002,0.012-0.002,0.018  c0,0.003,0.001,0.005,0.001,0.008C6.019,15.562,6,15.778,6,16C6,21.514,10.486,26,16,26z M8.591,12.995  c0.058-0.146,0.127-0.286,0.194-0.427c0.048-0.101,0.094-0.205,0.146-0.304c0.048-0.091,0.101-0.177,0.152-0.266  c0.083-0.142,0.165-0.285,0.256-0.422c0.035-0.052,0.073-0.102,0.109-0.154c0.114-0.163,0.232-0.324,0.357-0.478  c0.027-0.033,0.056-0.064,0.083-0.097c0.138-0.163,0.281-0.322,0.431-0.474c0.029-0.029,0.06-0.057,0.089-0.086  c0.15-0.147,0.305-0.289,0.466-0.423c0.043-0.036,0.089-0.07,0.133-0.106c0.103-0.083,0.211-0.16,0.318-0.238l0.904,1.656  l2.021,3.704l-6.095-0.407c0.089-0.467,0.223-0.919,0.39-1.355C8.561,13.078,8.574,13.036,8.591,12.995z M8.024,16.47l7.199,0.48  l1.899,6.962C16.754,23.964,16.382,24,16,24C11.748,24,8.269,20.662,8.024,16.47z M24,16c0,0.367-0.033,0.728-0.082,1.084  c-0.011,0.079-0.023,0.158-0.036,0.236c-0.122,0.721-0.338,1.414-0.642,2.062c-0.02,0.043-0.041,0.086-0.062,0.128  c-0.323,0.657-0.734,1.267-1.221,1.811c-0.029,0.032-0.057,0.064-0.086,0.095c-0.501,0.542-1.076,1.017-1.715,1.406  c-0.027,0.017-0.054,0.033-0.082,0.05c-0.326,0.194-0.666,0.368-1.022,0.515l-2.086-7.65c-0.021-0.075-0.05-0.147-0.087-0.216  l-3.797-6.962c0.096-0.038,0.193-0.073,0.291-0.107c0.112-0.039,0.224-0.081,0.338-0.115c0.125-0.037,0.253-0.067,0.38-0.098  c0.123-0.03,0.246-0.064,0.37-0.088c0.14-0.027,0.283-0.045,0.425-0.065c0.112-0.016,0.224-0.037,0.337-0.048  C15.478,8.015,15.737,8,16,8C20.411,8,24,11.589,24,16z"/><path d="M57,2H7C4.243,2,2,4.243,2,7v36v2c0,2.757,2.243,5,5,5h22v4h-8c-2.757,0-5,2.243-5,5v2c0,0.552,0.448,1,1,1h30  c0.552,0,1-0.448,1-1v-2c0-2.757-2.243-5-5-5h-8v-4h22c2.757,0,5-2.243,5-5v-2V7C62,4.243,59.757,2,57,2z M7,4h50  c1.654,0,3,1.346,3,3v35H4V7C4,5.346,5.346,4,7,4z M46,59v1H18v-1c0-1.654,1.346-3,3-3h9h4h9C44.654,56,46,57.346,46,59z M33,54h-2  v-4h2V54z M60,45c0,1.654-1.346,3-3,3H34h-4H7c-1.654,0-3-1.346-3-3v-1h56V45z"/><path d="M29,40h29v-2H30V6h-2v33C28,39.552,28.448,40,29,40z"/><path d="M7,40h18c0.552,0,1-0.448,1-1V29c0-0.552-0.448-1-1-1H7c-0.552,0-1,0.448-1,1v10C6,39.552,6.448,40,7,40z M8,30h16v8H8V30z"/><path d="M36.274,29.688l3.019,3.019c0.352,0.352,0.909,0.392,1.307,0.093l4-3c0.172-0.129,0.298-0.311,0.359-0.518l3.825-13.005  l2.232,11.907c0.068,0.365,0.333,0.662,0.688,0.771c0.354,0.107,0.74,0.014,1.002-0.249l5-5l-1.414-1.414l-3.66,3.659l-2.65-14.136  c-0.085-0.455-0.471-0.792-0.933-0.814c-0.465-0.021-0.879,0.272-1.01,0.716l-4.906,16.682l-3.041,2.28l-3.387-3.387  c-0.228-0.228-0.552-0.33-0.867-0.28c-0.317,0.052-0.59,0.252-0.734,0.54l-4,8l1.789,0.895L36.274,29.688z"/></svg>
