<svg xmlns="http://www.w3.org/2000/svg" xmlns:xlink="http://www.w3.org/1999/xlink" version="1.1" x="0px" y="0px" viewBox="0 0 100 125" enable-background="new 0 0 100 100" xml:space="preserve"><path d="M13.743,84.136l-2.217,2.216c-0.586,0.585-0.586,1.535,0,2.121c0.292,0.293,0.677,0.439,1.061,0.439  s0.768-0.146,1.061-0.439l2.217-2.216c0.586-0.585,0.586-1.535,0-2.121C15.279,83.55,14.329,83.55,13.743,84.136z"/><path d="M16.54,81.34l-0.141,0.141c-0.586,0.585-0.586,1.536,0,2.121c0.293,0.293,0.677,0.439,1.061,0.439s0.768-0.146,1.061-0.439  l0.141-0.141c0.586-0.585,0.586-1.536,0-2.121C18.075,80.754,17.126,80.754,16.54,81.34z"/><path d="M30.187,69.814c-0.586-0.586-1.535-0.586-2.121,0l-8.745,8.745c-0.586,0.585-0.586,1.536,0,2.121  c0.293,0.293,0.677,0.439,1.061,0.439s0.768-0.146,1.061-0.439l8.745-8.745C30.772,71.349,30.772,70.399,30.187,69.814z"/><path d="M18.983,70.501c0.384,0,0.768-0.146,1.061-0.439l4.135-4.135c0.586-0.585,0.586-1.535,0-2.121  c-0.586-0.586-1.535-0.586-2.121,0l-4.135,4.135c-0.586,0.585-0.586,1.535,0,2.121C18.215,70.355,18.599,70.501,18.983,70.501z"/><path d="M57.545,31.185c-3.107,3.107-3.107,8.163,0,11.27c1.554,1.554,3.594,2.33,5.635,2.33s4.082-0.776,5.635-2.33  c3.107-3.107,3.107-8.163,0-11.27C65.708,28.077,60.652,28.077,57.545,31.185z M66.943,40.029h-7.526  c-0.224-0.262-0.415-0.54-0.576-0.833h8.677C67.358,39.489,67.167,39.767,66.943,40.029z M59.348,33.696h7.665  c0.215,0.263,0.398,0.54,0.551,0.833h-8.767C58.949,34.236,59.133,33.959,59.348,33.696z M67.956,35.529  c0.074,0.275,0.122,0.552,0.148,0.833h-9.847c0.026-0.282,0.074-0.559,0.148-0.833H67.956z M58.43,38.196  c-0.079-0.275-0.134-0.551-0.165-0.833h9.831c-0.031,0.282-0.086,0.559-0.165,0.833H58.43z M65.947,32.696h-5.534  c0.834-0.56,1.799-0.843,2.767-0.843C64.147,31.853,65.113,32.137,65.947,32.696z M60.559,41.029h5.243  C64.201,42.025,62.16,42.025,60.559,41.029z"/><path d="M88.837,13.815l-0.029-1.16c-0.019-0.8-0.664-1.444-1.464-1.463l-1.163-0.029c-6.33-0.164-14.211-0.37-20.021,3.023  c-6.392,3.734-11.857,9.249-17.143,14.581c-0.481,0.485-0.957,0.963-1.432,1.441L33.67,30.831c-0.375,0.017-0.729,0.173-0.994,0.438  L18.826,45.12c-0.429,0.429-0.558,1.074-0.325,1.635c0.232,0.561,0.779,0.926,1.386,0.926h10.229l-2.167,2.167  c-0.281,0.281-0.439,0.663-0.439,1.061s0.158,0.779,0.439,1.061l2.185,2.185l-3.907,2.191c-0.41,0.229-0.688,0.638-0.752,1.103  c-0.064,0.465,0.093,0.934,0.425,1.266L41.288,74.1c0.283,0.283,0.666,0.439,1.061,0.439c0.068,0,0.137-0.004,0.205-0.014  c0.465-0.064,0.874-0.342,1.103-0.752l2.192-3.907l2.184,2.184c0.293,0.293,0.677,0.439,1.061,0.439s0.768-0.146,1.061-0.439  l2.166-2.166v10.229c0,0.607,0.365,1.154,0.926,1.386c0.186,0.077,0.381,0.114,0.574,0.114c0.391,0,0.774-0.152,1.061-0.439  l13.851-13.851c0.265-0.265,0.421-0.619,0.438-0.993l0.624-13.916c0.478-0.476,0.956-0.951,1.441-1.432  c5.333-5.286,10.847-10.751,14.581-17.143C89.208,28.029,89.002,20.148,88.837,13.815z M23.508,44.68l10.878-10.878l10.059-0.451  L33.116,44.68H23.508z M42.009,70.578L29.422,57.991l2.916-1.635l11.307,11.306L42.009,70.578z M55.319,76.492v-9.608l11.329-11.329  l-0.451,10.059L55.319,76.492z M83.223,32.326c-3.535,6.052-8.907,11.377-14.102,16.526c-0.68,0.674-1.354,1.342-2.017,2.005  L49.093,68.868l-8.98-8.98l-8.98-8.98l18.011-18.012c0.664-0.664,1.332-1.337,2.005-2.017c5.149-5.195,10.474-10.566,16.525-14.102  c5.002-2.922,11.975-2.783,18.171-2.622C86.006,20.352,86.146,27.324,83.223,32.326z"/><path d="M16.625,72.86c0.384,0,0.768-0.146,1.061-0.439l0.105-0.105c0.586-0.585,0.586-1.536,0-2.121  c-0.586-0.586-1.535-0.586-2.121,0L15.564,70.3c-0.586,0.585-0.586,1.536,0,2.121C15.857,72.714,16.241,72.86,16.625,72.86z"/><path d="M13.242,76.242c0.384,0,0.768-0.146,1.061-0.439l1.073-1.073c0.586-0.585,0.586-1.536,0-2.121  c-0.586-0.586-1.535-0.586-2.121,0l-1.073,1.073c-0.586,0.585-0.586,1.536,0,2.121C12.475,76.095,12.858,76.242,13.242,76.242z"/><path d="M28.332,81.563l-4.135,4.135c-0.586,0.585-0.586,1.536,0,2.121c0.293,0.293,0.677,0.439,1.061,0.439  s0.768-0.146,1.061-0.439l4.135-4.135c0.586-0.585,0.586-1.536,0-2.121C29.867,80.977,28.918,80.977,28.332,81.563z"/><path d="M32.756,79.252c-0.565-0.607-1.514-0.641-2.12-0.075c-0.606,0.564-0.64,1.514-0.075,2.12l0.08,0.086  c0.295,0.317,0.696,0.478,1.098,0.478c0.366,0,0.733-0.133,1.022-0.403c0.606-0.564,0.64-1.514,0.075-2.12L32.756,79.252z"/><path d="M34.073,75.821L33,76.894c-0.586,0.586-0.586,1.536,0,2.122c0.293,0.293,0.677,0.439,1.061,0.439s0.768-0.146,1.061-0.439  l1.074-1.073c0.586-0.586,0.586-1.536,0-2.122C35.609,75.236,34.659,75.236,34.073,75.821z"/></svg>
