<svg xmlns="http://www.w3.org/2000/svg" xmlns:xlink="http://www.w3.org/1999/xlink" version="1.1" x="0px" y="0px" viewBox="0 0 100 125" enable-background="new 0 0 100 100" xml:space="preserve"><g><path d="M98.0869141,73.3046875c0.0013428-0.0365601-0.0085449-0.0712891-0.0092773-0.1075439l0.0004883-0.0164795   c0.0002441-0.0079346-0.0039062-0.0145874-0.0039062-0.0224609c-0.024292-0.5567017-0.2873535-1.0759888-0.7431641-1.4052734   l-0.7319336-0.5302124c-0.1193848-1.4605103-0.9921875-3.2418823-1.9399414-4.9668579l-0.6054688-1.1015625   c-0.6513672-1.1855469-1.0771484-2.4677734-1.2646484-3.8105469L91.265625,50.4155273   c-0.2392578-1.7192383-1.2275391-3.2216797-2.7109375-4.1230469l-13.0185547-7.9121704v-4.7255249   c0-0.0020752-0.0007324-0.0039062-0.0007324-0.0059814c0-0.0022583,0.0007324-0.0044556,0.0007324-0.0067139   c-0.0007324-0.0495605-0.0131836-0.0963745-0.0209961-0.1444702c-0.0059814-0.0368652-0.0062256-0.0751343-0.0161133-0.1107788   c-0.0118408-0.0421753-0.0334473-0.0801392-0.0505371-0.1202393c-0.0168457-0.0397339-0.0290527-0.081665-0.0509033-0.1188354   c-0.0153809-0.0261841-0.0379639-0.0473022-0.0557861-0.0719604c-0.0810547-0.112854-0.1804199-0.2127686-0.3043213-0.284729   c-0.0025635-0.0015259-0.0045166-0.0039062-0.0072021-0.0054321v-0.000061   c-0.0007324-0.0004272-0.0012207-0.0010376-0.0019531-0.0014038s-0.0014648-0.0004883-0.0021973-0.0008545L41.7988281,13.8745117   c-0.3144531-0.1787109-0.7011719-0.1748047-1.0107422,0.0131836L18.1223145,27.5755615   c0,0.000061-0.0002441,0.000061-0.0002441,0.0001221c-0.0001221,0.000061-0.0001221,0.0001221-0.0002441,0.0001831   l-0.0134277,0.0081177c-0.0341797,0.0206909-0.0610352,0.0493774-0.092041,0.0736084   c-0.0362549,0.0281982-0.0754395,0.0530396-0.1070557,0.0855103c-0.0300293,0.0308838-0.0518799,0.067688-0.0775146,0.1019287   c-0.0258789,0.0344849-0.0554199,0.06604-0.0766602,0.1035156c-0.024292,0.0429688-0.0385742,0.0905762-0.0563965,0.1367798   c-0.0129395,0.0339355-0.0307617,0.0655518-0.0400391,0.1008301c-0.0129395,0.0487671-0.0146484,0.1002808-0.0200195,0.151062   C17.6350098,28.3721924,17.625,28.4057617,17.625,28.4414062v0.0115967c0,0.000061,0,0.000061,0,0.0001221s0,0.000061,0,0.0001221   l0.0380859,29.7615967c0,0.3603516,0.1943359,0.6923828,0.5078125,0.8691406l4.0183105,2.272644   c-0.2460938,0.664978-0.3775635,1.4202271-0.3796387,2.2644653c-0.0107422,3.9248047,2.6552734,8.5429688,6.0683594,10.5126953   c1.0419922,0.6015625,2.0654297,0.9052734,3.0097656,0.9052734c0.7041016,0,1.3642578-0.1689453,1.9541016-0.5087891   c0.0028076-0.0015869,0.005127-0.0038452,0.0079346-0.0054321c0.0018311-0.0010376,0.0039062-0.0012817,0.0057373-0.0023804   l3.5019531-2.0351562c0.8184814-0.475769,1.5302734-0.9970703,1.8847656-2.0511475L51.3945312,77.875   c0.001709,0.0009766,0.0036621,0.0012817,0.0054932,0.0022583c0.0023193,0.0012817,0.0039062,0.0032959,0.0062256,0.0045776   l3.8491211,2.1078491c-0.072998,0.4247437-0.1184082,0.8707886-0.1196289,1.347229   c-0.0126953,4.2695312,2.8867188,9.2939453,6.6015625,11.4384766c1.1269531,0.6503906,2.2314453,0.9785156,3.2490234,0.9785156   c0.7558594,0,1.4628906-0.1816406,2.0947266-0.5449219c0.00354-0.0020142,0.0064697-0.0048218,0.0100098-0.0068359   c0.0014648-0.0008545,0.0031738-0.0010986,0.0046387-0.0019531h0.0009766   c0.0009766-0.0009766,0.0019531-0.0009766,0.0039062-0.0019531l2.8557129-1.6599731   c0.0471191,0.0681152,0.0864258,0.1417236,0.1501465,0.1970825l0.8720703,0.7558594   c0.0556641,0.0478516,0.1152344,0.0888672,0.1796875,0.1240234c0.5742188,0.3105469,1.2099609,0.4648438,1.8457031,0.4648438   c0.6982422,0,1.3955078-0.1865234,2.0097656-0.5576172l21.5527344-13.0908203   c1.3154297-0.7958984,1.4179688-2.6142578,1.4179688-3.1220703l0.0871582-2.9106445   C98.0744629,73.3669434,98.0856934,73.3370361,98.0869141,73.3046875z M92.90625,67.21875   c0.5136719,0.9345703,1.7167969,3.1230469,1.7167969,4.3339844c0,0.1318359,0.0286865,0.2563477,0.0749512,0.371521   c0.0344238,0.2630615,0.1677246,0.512146,0.3996582,0.6802368l0.8574219,0.6210938L74.0463867,86.8674927l-0.0512695-2.5247192   c0-1.3720703-0.7587891-2.6035156-1.4277344-3.6904297c-0.1796875-0.2929688-0.3564453-0.5791016-0.5087891-0.8564453   l-0.6054688-1.1015625c-0.4462891-0.8122559-0.7781982-1.6724854-1.0085449-2.5639038l20.8430176-12.4109497   c0.2587891,0.8280029,0.5921631,1.6311035,1.0131836,2.3977051L92.90625,67.21875z M66.9840088,66.3794556l0.9648438,6.9206543   L59.84375,68.8134766v-6.3662109L66.9840088,66.3794556z M90.8181152,61.6708374L70.0688477,74.0259399l-1.0812988-7.7567749   l20.6896973-12.7653809l1.1313477,8.1153564C90.8110352,61.6365967,90.8156738,61.6534424,90.8181152,61.6708374z    M89.2851562,50.6918945l0.090332,0.6484985L68.6859131,64.1057739l-0.020874-0.1497192   c-0.2392578-1.7197266-1.2285156-3.2226562-2.7109375-4.1230469l-11.9255371-7.2483521l20.3598633-12.5614624l13.1271973,7.9782715   C88.4833984,48.5898438,89.1289062,49.5703125,89.2851562,50.6918945z M73.5361328,35.4255981v2.7730103l-20.6921387,12.767395   l-0.005127-3.0621948l2.173584-1.3104858L73.5361328,35.4255981z M41.3193359,15.902832l31.2382812,17.7768555   l-1.4074707,0.8485718L51.822998,46.180481L20.6015625,28.4140625L41.3193359,15.902832z M28.8779297,72.4013672   c-2.7558594-1.5898438-5.0771484-5.6083984-5.0683594-8.7744141c0.0010986-0.4664307,0.0588379-0.8882446,0.1584473-1.2641602   l8.3553467,4.725708c0.5013428,1.2103271,0.6610107,1.9284668,0.6580811,2.9827881   C32.9804688,70.4048462,32.9544678,70.71521,32.9050293,71c-0.0300293,0.1717529-0.0849609,0.3148193-0.1318359,0.4672241   c-0.0307617,0.1004028-0.0489502,0.2157593-0.0870361,0.307312c-0.0507812,0.1220703-0.1241455,0.2139282-0.1873779,0.3196411   c-0.0563965,0.0942383-0.1014404,0.2038574-0.1676025,0.2844238c-0.0523682,0.0639038-0.1221924,0.1008911-0.180542,0.1559448   c-0.098877,0.0930176-0.1914062,0.1959839-0.3068848,0.2623291C31.1181641,73.2148438,30.0380859,73.0703125,28.8779297,72.4013672   z M35.3515625,70.7587891l-0.4267578,0.2480469c0.0029297-0.0240479,0.0018311-0.0508423,0.0046387-0.0750732   c0.0310059-0.2752075,0.0511475-0.5582886,0.052002-0.8546143c0.0019531-0.5853271-0.0544434-1.0846558-0.1391602-1.5639648   l1.5993652,0.9046631C36.3352051,70.1743164,35.9997559,70.381897,35.3515625,70.7587891z M38.2004395,68.1152344   c-0.1196289-0.1234741-0.2747803-0.2020874-0.4443359-0.2512817L19.6621094,57.6298828l-0.0351562-27.4692383   l31.2119141,17.7607422l0.0075684,4.6575928l0.0373535,22.710083L38.2004395,68.1152344z M52.8867188,54.2314453   l12.0292969,7.3105469c0.862793,0.5245972,1.447998,1.3696289,1.6796875,2.3403931l-6.3164062-3.4780884   c-0.5126953-0.2822266-1.1201172-0.2753906-1.6289062,0.0244141c-0.5048828,0.2978516-0.8066406,0.8271484-0.8066406,1.4140625   v7.1816406c0,0.5976562,0.3251953,1.1484375,0.8476562,1.4375l9.6347656,5.333313   c0.2565918,1.3535767,0.7094727,2.6519775,1.3740234,3.8619995l0.6054688,1.1015625   c0.1679688,0.3056641,0.3603516,0.6201172,0.5585938,0.9414062c0.5556641,0.9033203,1.1308594,1.8369141,1.1308594,2.6630859   l0.0488281,2.4228516l-1.9492188-1.3730469c-0.5058594-1.4199219-2.7382812-6.8007812-8.1015625-8.9511719   c-0.9234619-0.3709106-1.7801514-0.4969482-2.5581055-0.4567871c-0.060791,0.0012207-0.1234131-0.0050659-0.1833496-0.0015259   c-0.0966797,0.0057373-0.1889648,0.0258789-0.2838135,0.0377808c-0.1195068,0.0150146-0.2408447,0.0236816-0.3572998,0.0484619   c-0.0878906,0.0186768-0.1712646,0.0512695-0.2573242,0.0755615c-0.1184082,0.0333862-0.2387695,0.0611572-0.3533936,0.1051025   c-0.0395508,0.0151367-0.0761719,0.0377808-0.1151123,0.0541382c-0.9835205,0.3582153-1.7733154,0.960144-2.3232422,1.5523071   l-2.6748047-1.4648438V54.2314453z M62.7373047,91.0429688c-3.046875-1.7587891-5.6123047-6.2011719-5.6015625-9.7001953   c0.0039062-1.4978638,0.4621582-2.5857544,1.2890625-3.0658569c0.0074463-0.0043335,0.0159912-0.0067139,0.0234375-0.0109253   c0.114624-0.0643311,0.2410889-0.1060791,0.3679199-0.1470947c0.144043-0.0391235,0.2940674-0.0703735,0.4521484-0.0905151   c0.0444336-0.0046997,0.0869141-0.0131836,0.1320801-0.015564c0.0712891-0.0062256,0.1459961-0.0065918,0.2198486-0.0083008   c0.1236572,0.0036011,0.2497559,0.0130615,0.3800049,0.0328369c0.0499268,0.0076294,0.1013184,0.0192261,0.1522217,0.0291748   c0.1160889,0.0227051,0.2342529,0.0510864,0.3546143,0.0861816c0.059082,0.0172119,0.1184082,0.0354004,0.1784668,0.055603   c0.1196289,0.0401001,0.2414551,0.0879517,0.364502,0.1397705c0.0598145,0.0253296,0.1188965,0.0477905,0.1794434,0.0758667   c0.1551514,0.0715942,0.3127441,0.1535645,0.472168,0.2431641c0.0255127,0.0143433,0.0500488,0.0251465,0.0756836,0.039917   c0.7614746,0.4394531,1.4929199,1.0466919,2.1616211,1.7650146c2.0061035,2.1555786,3.4472656,5.3099365,3.4399414,7.9342041   c-0.0006104,0.1871948-0.0083008,0.367981-0.0229492,0.5420532c-0.0046387,0.0544434-0.0141602,0.1038818-0.0200195,0.1569824   c-0.0130615,0.1164551-0.0249023,0.2340698-0.0443115,0.3438721c-0.0118408,0.0669556-0.0296631,0.1274414-0.0438232,0.1918945   c-0.0196533,0.0896606-0.0368652,0.1820068-0.0610352,0.2666016c-0.0175781,0.0611572-0.0407715,0.1154175-0.0605469,0.1738892   c-0.0273438,0.0805054-0.0522461,0.1638794-0.0839844,0.2391357c-0.0238037,0.0568237-0.0534668,0.1063843-0.079834,0.1601562   c-0.0338135,0.0690308-0.0651855,0.1411743-0.1030273,0.2050171c-0.0307617,0.0519409-0.0672607,0.0961304-0.1005859,0.1445312   c-0.0395508,0.057373-0.0765381,0.1182251-0.1196289,0.1704712c-0.0372314,0.045166-0.0800781,0.0820923-0.119873,0.1233521   c-0.0455322,0.0469971-0.0883789,0.0976562-0.137207,0.1395264c-0.043335,0.0370483-0.0919189,0.0656738-0.1376953,0.0986328   c-0.0532227,0.038208-0.1037598,0.0806274-0.1604004,0.1132202C65.2451172,91.9580078,64.0576172,91.8056641,62.7373047,91.0429688   z M69.3005371,89.4819336c0.0454102-0.3426514,0.0771484-0.6956177,0.0783691-1.0698242   c0.0009766-0.362915-0.0263672-0.7323608-0.0661621-1.1039429l0.3190918,0.2248535l0.0690918,1.8413086l-0.4099121,0.2379761   C69.2971191,89.5710449,69.2950439,89.5236816,69.3005371,89.4819336z M95.5292969,77.7216797L73.9765625,90.8125   c-0.5410156,0.3242188-1.2128906,0.3564453-1.7792969,0.0878906l-0.4521484-0.3925781L71.6875,88.9815063l0.8203125,0.578064   c0.171875,0.1210938,0.3740234,0.1826172,0.5761719,0.1826172c0.1611328,0,0.3222656-0.0390625,0.4697266-0.1171875   c0.1386719-0.0736084,0.2485352-0.1820679,0.3366699-0.3051758l22.1157227-13.7698975l-0.0217285,0.7293701   C95.984375,77.0371094,95.7509766,77.5878906,95.5292969,77.7216797z"/><polygon points="75.4328613,84.071167 79.0333252,81.7630005 79.0333252,79.2688599 75.4328613,81.5770264  "/><polygon points="89.7087402,75.5512695 93.309082,73.243042 93.309082,70.7489014 89.7087402,73.0570679  "/><path d="M13.8496094,23.1645508l-9.3203125-4.921875c-0.4873047-0.2587891-1.09375-0.0712891-1.3505859,0.4174805   c-0.2587891,0.4882812-0.0712891,1.0932617,0.4169922,1.3510742l9.3203125,4.921875   c0.1484375,0.0786133,0.3085938,0.1157227,0.4658203,0.1157227c0.359375,0,0.7060547-0.1933594,0.8847656-0.5332031   C14.5253906,24.0273438,14.3378906,23.4223633,13.8496094,23.1645508z"/><path d="M13.1845703,13.4042969l9.3212891,4.921875c0.1484375,0.0786133,0.3085938,0.1157227,0.4658203,0.1157227   c0.359375,0,0.7060547-0.1938477,0.8857422-0.5332031c0.2578125-0.4882812,0.0703125-1.0932617-0.4179688-1.3510742   l-9.3212891-4.921875c-0.4873047-0.2583008-1.0927734-0.0708008-1.3515625,0.4174805   C12.5087891,12.5415039,12.6962891,13.1464844,13.1845703,13.4042969z"/><path d="M24.0849609,7.6337891l9.3203125,4.921875c0.1484375,0.0786133,0.3085938,0.1157227,0.4658203,0.1157227   c0.359375,0,0.7060547-0.1933594,0.8847656-0.5332031c0.2587891-0.4882812,0.0712891-1.0932617-0.4169922-1.3510742   l-9.3203125-4.921875c-0.4873047-0.2587891-1.09375-0.0712891-1.3505859,0.4174805   C23.4091797,6.7709961,23.5966797,7.3759766,24.0849609,7.6337891z"/><path d="M13.8496094,33.0996094l-9.3203125-4.921875c-0.4873047-0.2578125-1.09375-0.0708008-1.3505859,0.4174805   c-0.2587891,0.4882812-0.0712891,1.0932617,0.4169922,1.3510742l9.3203125,4.921875   c0.1484375,0.0786133,0.3085938,0.1157227,0.4658203,0.1157227c0.359375,0,0.7060547-0.1933594,0.8847656-0.5332031   C14.5253906,33.9624023,14.3378906,33.3574219,13.8496094,33.0996094z"/><path d="M13.8496094,43.8178711l-9.3203125-4.921875c-0.4873047-0.2573242-1.09375-0.0703125-1.3505859,0.4174805   c-0.2587891,0.4882812-0.0712891,1.0932617,0.4169922,1.3510742l9.3203125,4.921875   c0.1484375,0.0786133,0.3085938,0.1157227,0.4658203,0.1157227c0.359375,0,0.7060547-0.1933594,0.8847656-0.5332031   C14.5253906,44.6806641,14.3378906,44.0756836,13.8496094,43.8178711z"/><path d="M13.8496094,54.0292969l-9.3203125-4.9213867c-0.4873047-0.2578125-1.09375-0.0712891-1.3505859,0.4174805   c-0.2587891,0.4882812-0.0712891,1.0932617,0.4169922,1.3510742l9.3203125,4.9213867   c0.1484375,0.0791016,0.3085938,0.1162109,0.4658203,0.1162109c0.359375,0,0.7060547-0.1933594,0.8847656-0.5332031   C14.5253906,54.8925781,14.3378906,54.2880859,13.8496094,54.0292969z"/></g></svg>
